<?xml version="1.0" encoding="UTF-8"?><svg id="Livello_2" xmlns="http://www.w3.org/2000/svg" viewBox="0 0 3000 3000"><defs><style>.cls-1{fill:#fff;fill-rule:evenodd;}</style></defs><g id="Layer_4"><g><rect width="3000" height="3000" rx="580.27" ry="580.27"/><path class="cls-1" d="m1789.25,361.54c-1.37,1.08-7.07,9.29-12.69,18.23-60.04,95.65-217.31,306.91-274.15,368.27-3.03,3.27-4.37,1.89-37.19-38.11-95.04-115.85-181.02-232.56-239.92-325.68-17.96-28.39-13.73-30.93-159.39,95.41-190.68,165.38-186.61,160.22-146.37,185.49,64.84,40.72,130.75,86.55,205.72,143.04,76.24,57.45,187.86,147.94,187.86,152.31,0,10.7-340.26,350.38-350.98,350.38-3.34,0-31.63-33.32-84.22-99.21-87.81-110.02-156.33-205.5-214.16-298.44-16.64-26.73-18.19-28.71-21.59-27.4-2.14.82-56.92,59.7-95.11,102.21-168.82,187.97-190.34,217.42-168.79,231,101.7,64.05,264.26,184.67,361.14,267.96,14.37,12.35,16.32,9.13-26.83,44.5-120.02,98.4-240.65,186.81-341.34,250.21-5.68,3.58-10.55,7.64-10.81,9.01-1.31,6.88,182.92,219.56,267.61,308.94,15.99,16.88,14.61,17.35,31.76-10.69,63.71-104.19,162.98-239.43,274.23-373.54,32.33-38.98,17.65-48.95,207.6,141,188.47,188.47,179.09,175.08,143.43,204.71-132.96,110.49-261.89,205.46-370.16,272.65-16.41,10.18-30.26,19.62-30.78,20.96-3.37,8.8,313.11,287.41,322.42,283.84,1.27-.49,7.25-8.69,13.29-18.23,56.72-89.56,128.96-189.38,212.64-293.82,30.67-38.29,63.67-78.22,65.63-79.44,2.3-1.42,3.77.16,31.59,33.9,92.49,112.18,190.33,244.79,244.5,331.37,5.41,8.64,8.87,12.61,11.02,12.61,11.83,0,319.3-270.59,316.31-278.38-.52-1.36-11.81-9.32-25.09-17.67-108.11-68.08-233.93-160.99-359.58-265.52-35.55-29.58-33.72-26.66-23.69-37.58,98.34-107.1,334.25-340.89,343.99-340.89,1.6,0,15.2,15.06,32.67,36.18,105.12,127.16,198.23,253.61,261.38,354.96,15.85,25.43,17.37,27.35,20.4,25.51,7.75-4.68,126.39-135.77,187.95-207.66,104.92-122.54,99.91-104.11,39.27-144.42-101.46-67.43-242.44-173.65-320.39-241.42-12.96-11.26-14.57-8.13,17.89-35.09,114.11-94.8,234.38-183.78,336.15-248.68,27.57-17.58,29.22-19.16,25.61-24.54-6.58-9.82-74.71-91.22-121.36-144.97-52.03-59.95-151.67-169.08-157.24-172.19-3.66-2.05-4.4-1.09-26.26,33.86-55.11,88.15-128.29,190.05-209.8,292.16-40.26,50.43-84.51,103.86-86.01,103.86-9.71,0-351.88-342.52-351.88-352.24,0-4.16,124.48-104.51,200.85-161.91,69.33-52.11,167.63-119.09,215.88-147.1,15.19-8.82,15.41-10.64,2.68-22.41-145.93-135.01-308.75-272.84-315.73-267.28Zm-252.99,433.36c34.46,40.12,96.72,110.37,127.92,144.34,20.72,22.56,22.08,18.28-16.43,51.38-37.67,32.37-96.81,84.75-126.05,111.64-23.83,21.9-20.54,21.55-39.48,4.24-31.18-28.51-104.25-93.19-133.79-118.44-36.66-31.33-37.05-22.92,3.17-67.12,33.74-37.07,95.2-106.92,128.09-145.56,21.9-25.74,15.94-27.8,56.58,19.52Zm8.97,370.37c54.38,50.71,229.87,225.93,278.56,278.15,20.02,21.47,39.68,42.47,43.69,46.68l7.29,7.65-14.5,15.81c-77.53,84.55-223.9,231.73-318.23,319.98-23.04,21.55-41.7,39.7-41.47,40.31.97,2.64,96.88,88.33,148.01,132.25,38.6,33.16,38.49,25.52.99,66.72-36.74,40.37-88.71,99.32-122.56,139.06-25.47,29.88-26.71,31.17-28.78,29.88-.71-.44-16.46-18.5-34.99-40.14-34.17-39.88-96.42-110.11-127.88-144.25-21.09-22.88-21.14-20.39.85-39.05,50.59-42.93,162.34-142.57,162.34-144.75,0-.58-21.78-21.47-48.39-46.42-26.61-24.95-88.7-85.64-137.96-134.86-81.43-81.35-110.82-111.59-168.82-173.71l-19.31-20.68,20.94-22.31c108.46-115.58,209.69-216.9,329.14-329.45,28.45-26.81,19.12-29.32,71.09,19.13Zm-553.98,183.41c30.29,35.24,80.31,91.78,112.09,126.68,22.93,25.18,21.96,21.47,9.24,35.12-28.73,30.85-104.96,117.07-136.63,154.54-14.93,17.66-13.62,17.31-25.28,6.63-49.59-45.48-119.31-107.24-167.33-148.25-33.86-28.92-35.33-20.59,10.57-59.87,41.74-35.73,112.48-98.47,145.16-128.75,25.05-23.22,18.88-24.86,52.19,13.9Zm1066.75-15.59c33.09,30.5,103.77,93.16,145.24,128.79,22.2,19.06,40.12,35.54,39.85,36.63-.27,1.09-19.16,18-41.97,37.58-43.65,37.47-94.46,82.45-136.62,120.93-30.66,27.99-22.7,29.85-60.44-14.07-34.08-39.65-75.73-86.67-108.25-122.21-11.01-12.03-19.82-22.42-19.59-23.08.24-.66,15.54-17.89,34-38.3,37.07-40.97,86.96-97.73,110.4-125.58,18.25-21.71,14.66-21.64,37.39-.7Z"/></g></g></svg>