<?xml version="1.0" encoding="utf-8"?>
<!-- Generator: Adobe Adobe Illustrator 24.2.0, SVG Export Plug-In . SVG Version: 6.00 Build 0)  -->
<svg version="1.1" xmlns="http://www.w3.org/2000/svg" xmlns:xlink="http://www.w3.org/1999/xlink" x="0px" y="0px" width="3000px"
	 height="3000px" viewBox="0 0 3000 3000" style="enable-background:new 0 0 3000 3000;" xml:space="preserve">
<style type="text/css">
	.st0{display:none;}
	.st1{display:inline;fill:#E5CFCF;}
	.st2{display:inline;}
	.st3{fill:#FF5F5F;}
	.st4{fill:#FFFFFF;}
	.st5{display:inline;fill:#FF5F5F;}
	.st6{fill:url(#SVGID_1_);}
	.st7{display:inline;fill:url(#SVGID_2_);}
	.st8{display:inline;fill:#FFFFFF;}
	.st9{fill-rule:evenodd;clip-rule:evenodd;fill:#FFFFFF;}
	.st10{fill:#292C33;}
	.st11{fill:#C3ED6B;}
	.st12{fill-rule:evenodd;clip-rule:evenodd;fill:#27272E;}
	.st13{fill:#03031C;}
	.st14{fill:url(#SVGID_3_);}
	.st15{fill:url(#SVGID_4_);}
</style>
<g id="Livello_6" class="st0">
	<rect x="-299.36" y="-259.91" class="st1" width="3537.1" height="3490.31"/>
</g>
<g id="Petra" class="st0">
	<g class="st2">
		<path class="st3" d="M2419.73,3000H580.27C259.8,3000,0,2740.2,0,2419.73V580.27C0,259.8,259.8,0,580.27,0h1839.46
			C2740.2,0,3000,259.8,3000,580.27v1839.46C3000,2740.2,2740.2,3000,2419.73,3000z"/>
		<g>
			<path class="st4" d="M1432.64,2612.11L1432.64,2612.11c-406.84,0-736.66-329.81-736.66-736.66V655.77l736.66-267.89V2612.11z"/>
			<path class="st4" d="M1567.36,1697.09L1567.36,1697.09c406.84,0,736.66-329.81,736.66-736.66V655.77l-736.66-267.89V1697.09z"/>
		</g>
	</g>
	<g>
		<path class="st5" d="M0,1547.08l0-94.16C0,650.49,650.49,0,1452.92,0l94.16,0C2349.51,0,3000,650.49,3000,1452.92v94.16
			C3000,2349.51,2349.51,3000,1547.08,3000h-94.16C650.49,3000,0,2349.51,0,1547.08z"/>
		<g class="st2">
			<path class="st4" d="M1432.64,2612.11L1432.64,2612.11c-406.84,0-736.66-329.81-736.66-736.66V655.77l736.66-267.89V2612.11z"/>
			<path class="st4" d="M1567.36,1697.09L1567.36,1697.09c406.84,0,736.66-329.81,736.66-736.66V655.77l-736.66-267.89V1697.09z"/>
		</g>
	</g>
</g>
<g id="Rise" class="st0">
	<g class="st2">
		<linearGradient id="SVGID_1_" gradientUnits="userSpaceOnUse" x1="3282.3789" y1="-165.7971" x2="-16.7133" y2="2917.5081">
			<stop  offset="0.243" style="stop-color:#00FCD7"/>
			<stop  offset="0.4349" style="stop-color:#0ED6DF"/>
			<stop  offset="0.8631" style="stop-color:#3176F4"/>
		</linearGradient>
		<path class="st6" d="M2419.73,3000H580.27C259.8,3000,0,2740.2,0,2419.73V580.27C0,259.8,259.8,0,580.27,0h1839.46
			C2740.2,0,3000,259.8,3000,580.27v1839.46C3000,2740.2,2740.2,3000,2419.73,3000z"/>
		<path class="st4" d="M2496.38,1413.21c-8.43,47.97-54.2,86.79-102.08,86.79H1500l-104.63,593.5
			c-8.43,47.97-54.11,86.79-102.08,86.79h-807.5c-47.97,0-79.94-38.83-71.51-86.79l89.34-506.71c8.43-47.97,54.2-86.79,102.08-86.79
			H1500l104.63-593.5c8.43-47.97,54.11-86.79,102.08-86.79h807.5c47.97,0,79.94,38.83,71.51,86.79L2496.38,1413.21z"/>
	</g>
	<g>
		<linearGradient id="SVGID_2_" gradientUnits="userSpaceOnUse" x1="2566.5996" y1="433.4004" x2="423.1832" y2="2576.8169">
			<stop  offset="0" style="stop-color:#00FCD7"/>
			<stop  offset="0.0174" style="stop-color:#01F9D8"/>
			<stop  offset="0.4889" style="stop-color:#1BB3E7"/>
			<stop  offset="0.8284" style="stop-color:#2B87F0"/>
			<stop  offset="1" style="stop-color:#3176F4"/>
		</linearGradient>
		<path class="st7" d="M0,1547.08l0-94.16C0,650.49,650.49,0,1452.92,0l94.16,0C2349.51,0,3000,650.49,3000,1452.92v94.16
			C3000,2349.51,2349.51,3000,1547.08,3000h-94.16C650.49,3000,0,2349.51,0,1547.08z"/>
		<path class="st8" d="M2496.38,1413.21c-8.43,47.97-54.2,86.79-102.08,86.79H1500l-104.63,593.5
			c-8.43,47.97-54.11,86.79-102.08,86.79h-807.5c-47.97,0-79.94-38.83-71.51-86.79l89.34-506.71c8.43-47.97,54.2-86.79,102.08-86.79
			H1500l104.63-593.5c8.43-47.97,54.11-86.79,102.08-86.79h807.5c47.97,0,79.94,38.83,71.51,86.79L2496.38,1413.21z"/>
	</g>
</g>
<g id="Layer_4" class="st0">
	<g class="st2">
		<path d="M2419.73,3000H580.27C259.8,3000,0,2740.2,0,2419.73V580.27C0,259.8,259.8,0,580.27,0h1839.46
			C2740.2,0,3000,259.8,3000,580.27v1839.46C3000,2740.2,2740.2,3000,2419.73,3000z"/>
		<path class="st9" d="M1789.25,361.54c-1.37,1.08-7.07,9.29-12.69,18.23c-60.04,95.65-217.31,306.91-274.15,368.27
			c-3.03,3.27-4.37,1.89-37.19-38.11c-95.04-115.85-181.02-232.56-239.92-325.68c-17.96-28.39-13.73-30.93-159.39,95.41
			C875.24,645.03,879.31,639.87,919.54,665.14c64.84,40.72,130.75,86.55,205.72,143.04c76.24,57.45,187.86,147.94,187.86,152.31
			c0,10.7-340.26,350.38-350.98,350.38c-3.34,0-31.63-33.32-84.22-99.21c-87.81-110.02-156.33-205.5-214.16-298.44
			c-16.64-26.73-18.19-28.71-21.59-27.4c-2.14,0.82-56.92,59.7-95.11,102.21c-168.82,187.97-190.34,217.42-168.79,231
			c101.7,64.05,264.26,184.67,361.14,267.96c14.37,12.35,16.32,9.13-26.83,44.5c-120.02,98.4-240.65,186.81-341.34,250.21
			c-5.68,3.58-10.55,7.64-10.81,9.01c-1.31,6.88,182.92,219.56,267.61,308.94c15.99,16.88,14.61,17.35,31.76-10.69
			c63.71-104.19,162.98-239.43,274.23-373.54c32.33-38.98,17.65-48.95,207.6,141c188.47,188.47,179.09,175.08,143.43,204.71
			c-132.96,110.49-261.89,205.46-370.16,272.65c-16.41,10.19-30.26,19.62-30.78,20.96c-3.37,8.8,313.11,287.41,322.42,283.84
			c1.27-0.49,7.25-8.69,13.29-18.23c56.72-89.56,128.96-189.38,212.64-293.82c30.67-38.29,63.67-78.22,65.63-79.44
			c2.3-1.42,3.77,0.16,31.59,33.9c92.49,112.18,190.33,244.79,244.5,331.37c5.41,8.64,8.87,12.61,11.03,12.61
			c11.83,0,319.3-270.59,316.31-278.38c-0.53-1.36-11.81-9.32-25.09-17.67c-108.11-68.08-233.93-160.99-359.58-265.52
			c-35.55-29.58-33.72-26.66-23.69-37.58c98.34-107.1,334.25-340.89,343.99-340.89c1.6,0,15.2,15.06,32.67,36.18
			c105.12,127.16,198.23,253.61,261.38,354.96c15.85,25.43,17.37,27.35,20.41,25.51c7.75-4.68,126.39-135.77,187.95-207.66
			c104.92-122.54,99.91-104.11,39.27-144.42c-101.46-67.43-242.44-173.65-320.39-241.42c-12.96-11.26-14.57-8.13,17.89-35.09
			c114.11-94.8,234.38-183.78,336.15-248.68c27.57-17.58,29.22-19.16,25.61-24.54c-6.58-9.82-74.71-91.22-121.36-144.97
			c-52.03-59.95-151.67-169.08-157.24-172.19c-3.66-2.05-4.4-1.09-26.26,33.86c-55.11,88.15-128.29,190.05-209.8,292.16
			c-40.26,50.43-84.51,103.86-86.01,103.86c-9.71,0-351.88-342.52-351.88-352.24c0-4.16,124.48-104.51,200.85-161.91
			c69.33-52.11,167.63-119.09,215.88-147.1c15.19-8.82,15.41-10.64,2.68-22.41C1959.05,493.81,1796.24,355.98,1789.25,361.54z
			 M1536.26,794.9c34.46,40.12,96.72,110.37,127.92,144.34c20.72,22.56,22.08,18.28-16.43,51.38
			c-37.67,32.37-96.81,84.75-126.05,111.64c-23.83,21.9-20.54,21.55-39.48,4.24c-31.18-28.51-104.25-93.19-133.79-118.44
			c-36.66-31.33-37.05-22.92,3.17-67.12c33.74-37.07,95.2-106.92,128.09-145.56C1501.58,749.65,1495.62,747.59,1536.26,794.9z
			 M1545.23,1165.27c54.38,50.71,229.87,225.93,278.56,278.15c20.02,21.47,39.68,42.47,43.69,46.68l7.29,7.65l-14.5,15.81
			c-77.53,84.55-223.9,231.73-318.23,319.98c-23.04,21.55-41.7,39.7-41.47,40.31c0.97,2.64,96.88,88.33,148.01,132.25
			c38.6,33.16,38.49,25.52,0.99,66.72c-36.74,40.37-88.71,99.32-122.56,139.06c-25.47,29.88-26.71,31.17-28.78,29.88
			c-0.71-0.44-16.46-18.5-34.99-40.14c-34.17-39.88-96.42-110.11-127.88-144.25c-21.09-22.88-21.14-20.39,0.85-39.05
			c50.59-42.93,162.34-142.57,162.34-144.75c0-0.58-21.78-21.47-48.39-46.42c-26.61-24.95-88.7-85.64-137.96-134.86
			c-81.43-81.35-110.82-111.59-168.82-173.71l-19.31-20.68l20.94-22.31c108.46-115.58,209.69-216.91,329.14-329.45
			C1502.59,1119.32,1493.26,1116.81,1545.23,1165.27z M991.25,1348.68c30.29,35.24,80.31,91.78,112.09,126.68
			c22.93,25.18,21.96,21.47,9.24,35.12c-28.73,30.85-104.96,117.07-136.63,154.54c-14.93,17.66-13.62,17.31-25.28,6.63
			c-49.59-45.48-119.31-107.24-167.33-148.25c-33.86-28.92-35.33-20.59,10.57-59.87c41.74-35.73,112.48-98.47,145.16-128.75
			C964.11,1311.56,957.94,1309.92,991.25,1348.68z M2058,1333.09c33.09,30.5,103.77,93.16,145.24,128.79
			c22.2,19.06,40.12,35.54,39.85,36.63c-0.27,1.09-19.16,18-41.97,37.58c-43.65,37.47-94.46,82.45-136.62,120.93
			c-30.66,27.99-22.7,29.85-60.44-14.07c-34.08-39.65-75.73-86.67-108.25-122.21c-11.01-12.03-19.82-22.42-19.59-23.08
			c0.24-0.66,15.54-17.89,34-38.3c37.07-40.97,86.96-97.73,110.4-125.58C2038.87,1312.08,2035.28,1312.15,2058,1333.09z"/>
	</g>
	<g class="st2">
		<path d="M0,1547.08l0-94.16C0,650.49,650.49,0,1452.92,0l94.16,0C2349.51,0,3000,650.49,3000,1452.92v94.16
			C3000,2349.51,2349.51,3000,1547.08,3000h-94.16C650.49,3000,0,2349.51,0,1547.08z"/>
		<path class="st9" d="M1789.25,361.54c-1.37,1.08-7.07,9.29-12.69,18.23c-60.04,95.65-217.31,306.91-274.15,368.27
			c-3.03,3.27-4.37,1.89-37.19-38.11c-95.04-115.85-181.02-232.56-239.92-325.68c-17.96-28.39-13.73-30.93-159.39,95.41
			C875.24,645.03,879.31,639.87,919.54,665.14c64.84,40.72,130.75,86.55,205.72,143.04c76.24,57.45,187.86,147.94,187.86,152.31
			c0,10.7-340.26,350.38-350.98,350.38c-3.34,0-31.63-33.32-84.22-99.21c-87.81-110.02-156.33-205.5-214.16-298.44
			c-16.64-26.73-18.19-28.71-21.59-27.4c-2.14,0.82-56.92,59.7-95.11,102.21c-168.82,187.97-190.34,217.42-168.79,231
			c101.7,64.05,264.26,184.67,361.14,267.96c14.37,12.35,16.32,9.13-26.83,44.5c-120.02,98.4-240.65,186.81-341.34,250.21
			c-5.68,3.58-10.55,7.64-10.81,9.01c-1.31,6.88,182.92,219.56,267.61,308.94c15.99,16.88,14.61,17.35,31.76-10.69
			c63.71-104.19,162.98-239.43,274.23-373.54c32.33-38.98,17.65-48.95,207.6,141c188.47,188.47,179.09,175.08,143.43,204.71
			c-132.96,110.49-261.89,205.46-370.16,272.65c-16.41,10.19-30.26,19.62-30.78,20.96c-3.37,8.8,313.11,287.41,322.42,283.84
			c1.27-0.49,7.25-8.69,13.29-18.23c56.72-89.56,128.96-189.38,212.64-293.82c30.67-38.29,63.67-78.22,65.63-79.44
			c2.3-1.42,3.77,0.16,31.59,33.9c92.49,112.18,190.33,244.79,244.5,331.37c5.41,8.64,8.87,12.61,11.03,12.61
			c11.83,0,319.3-270.59,316.31-278.38c-0.53-1.36-11.81-9.32-25.09-17.67c-108.11-68.08-233.93-160.99-359.58-265.52
			c-35.55-29.58-33.72-26.66-23.69-37.58c98.34-107.1,334.25-340.89,343.99-340.89c1.6,0,15.2,15.06,32.67,36.18
			c105.12,127.16,198.23,253.61,261.38,354.96c15.85,25.43,17.37,27.35,20.41,25.51c7.75-4.68,126.39-135.77,187.95-207.66
			c104.92-122.54,99.91-104.11,39.27-144.42c-101.46-67.43-242.44-173.65-320.39-241.42c-12.96-11.26-14.57-8.13,17.89-35.09
			c114.11-94.8,234.38-183.78,336.15-248.68c27.57-17.58,29.22-19.16,25.61-24.54c-6.58-9.82-74.71-91.22-121.36-144.97
			c-52.03-59.95-151.67-169.08-157.24-172.19c-3.66-2.05-4.4-1.09-26.26,33.86c-55.11,88.15-128.29,190.05-209.8,292.16
			c-40.26,50.43-84.51,103.86-86.01,103.86c-9.71,0-351.88-342.52-351.88-352.24c0-4.16,124.48-104.51,200.85-161.91
			c69.33-52.11,167.63-119.09,215.88-147.1c15.19-8.82,15.41-10.64,2.68-22.41C1959.05,493.81,1796.24,355.98,1789.25,361.54z
			 M1536.26,794.9c34.46,40.12,96.72,110.37,127.92,144.34c20.72,22.56,22.08,18.28-16.43,51.38
			c-37.67,32.37-96.81,84.75-126.05,111.64c-23.83,21.9-20.54,21.55-39.48,4.24c-31.18-28.51-104.25-93.19-133.79-118.44
			c-36.66-31.33-37.05-22.92,3.17-67.12c33.74-37.07,95.2-106.92,128.09-145.56C1501.58,749.65,1495.62,747.59,1536.26,794.9z
			 M1545.23,1165.27c54.38,50.71,229.87,225.93,278.56,278.15c20.02,21.47,39.68,42.47,43.69,46.68l7.29,7.65l-14.5,15.81
			c-77.53,84.55-223.9,231.73-318.23,319.98c-23.04,21.55-41.7,39.7-41.47,40.31c0.97,2.64,96.88,88.33,148.01,132.25
			c38.6,33.16,38.49,25.52,0.99,66.72c-36.74,40.37-88.71,99.32-122.56,139.06c-25.47,29.88-26.71,31.17-28.78,29.88
			c-0.71-0.44-16.46-18.5-34.99-40.14c-34.17-39.88-96.42-110.11-127.88-144.25c-21.09-22.88-21.14-20.39,0.85-39.05
			c50.59-42.93,162.34-142.57,162.34-144.75c0-0.58-21.78-21.47-48.39-46.42c-26.61-24.95-88.7-85.64-137.96-134.86
			c-81.43-81.35-110.82-111.59-168.82-173.71l-19.31-20.68l20.94-22.31c108.46-115.58,209.69-216.91,329.14-329.45
			C1502.59,1119.32,1493.26,1116.81,1545.23,1165.27z M991.25,1348.68c30.29,35.24,80.31,91.78,112.09,126.68
			c22.93,25.18,21.96,21.47,9.24,35.12c-28.73,30.85-104.96,117.07-136.63,154.54c-14.93,17.66-13.62,17.31-25.28,6.63
			c-49.59-45.48-119.31-107.24-167.33-148.25c-33.86-28.92-35.33-20.59,10.57-59.87c41.74-35.73,112.48-98.47,145.16-128.75
			C964.11,1311.56,957.94,1309.92,991.25,1348.68z M2058,1333.09c33.09,30.5,103.77,93.16,145.24,128.79
			c22.2,19.06,40.12,35.54,39.85,36.63c-0.27,1.09-19.16,18-41.97,37.58c-43.65,37.47-94.46,82.45-136.62,120.93
			c-30.66,27.99-22.7,29.85-60.44-14.07c-34.08-39.65-75.73-86.67-108.25-122.21c-11.01-12.03-19.82-22.42-19.59-23.08
			c0.24-0.66,15.54-17.89,34-38.3c37.07-40.97,86.96-97.73,110.4-125.58C2038.87,1312.08,2035.28,1312.15,2058,1333.09z"/>
	</g>
</g>
<g id="Livello_5" class="st0">
	<g class="st2">
		<path class="st4" d="M2419.73,3000H580.27C259.8,3000,0,2740.2,0,2419.73V580.27C0,259.8,259.8,0,580.27,0h1839.46
			C2740.2,0,3000,259.8,3000,580.27v1839.46C3000,2740.2,2740.2,3000,2419.73,3000z"/>
		<g>
			<path class="st10" d="M2131.74,1500H869.32c0-346.8,283.84-631.79,631.79-631.79c347.94,0,631.78,283.85,631.78,631.79H2131.74z"
				/>
			<path class="st10" d="M1499.99,237.58c-697.02,0-1262.42,565.4-1262.42,1262.43c0,697.02,565.4,1262.42,1262.42,1262.42
				c697.03,0,1262.43-565.4,1262.43-1262.42C2762.43,802.98,2198.16,237.58,1499.99,237.58z M1499.99,2447.68
				c-520.76,0-947.67-425.77-947.67-947.68c0-521.91,426.91-946.53,947.67-946.53c520.77,0,947.68,425.77,947.68,947.67
				c0,521.92-425.77,947.68-947.68,947.68V2447.68z"/>
		</g>
	</g>
	<g class="st2">
		<path class="st4" d="M0,1547.08l0-94.16C0,650.49,650.49,0,1452.92,0l94.16,0C2349.51,0,3000,650.49,3000,1452.92v94.16
			C3000,2349.51,2349.51,3000,1547.08,3000h-94.16C650.49,3000,0,2349.51,0,1547.08z"/>
		<g>
			<path class="st10" d="M2131.74,1500H869.32c0-346.8,283.84-631.79,631.79-631.79c347.94,0,631.78,283.85,631.78,631.79H2131.74z"
				/>
			<path class="st10" d="M1499.99,237.58c-697.02,0-1262.42,565.4-1262.42,1262.43c0,697.02,565.4,1262.42,1262.42,1262.42
				c697.03,0,1262.43-565.4,1262.43-1262.42C2762.43,802.98,2198.16,237.58,1499.99,237.58z M1499.99,2447.68
				c-520.76,0-947.67-425.77-947.67-947.68c0-521.91,426.91-946.53,947.67-946.53c520.77,0,947.68,425.77,947.68,947.67
				c0,521.92-425.77,947.68-947.68,947.68V2447.68z"/>
		</g>
	</g>
</g>
<g id="Livello_7" class="st0">
	<g class="st2">
		<path class="st11" d="M2419.73,3000H580.27C259.8,3000,0,2740.2,0,2419.73V580.27C0,259.8,259.8,0,580.27,0h1839.46
			C2740.2,0,3000,259.8,3000,580.27v1839.46C3000,2740.2,2740.2,3000,2419.73,3000z"/>
		<path class="st12" d="M2453.6,1258.01c0-0.01,0.02-0.02,0.04-0.02c6.46-0.02,12.59-2.69,17.05-7.24l34.23-35.55
			c4.27-4.46,10.18-6.91,16.33-6.91h1.45c6.5,0,12.64,2.79,17.01,7.58l28.86,32.54c5.49,6.13,13.44,9.7,21.7,9.7h74.39
			c1.2,0,1.88-1.37,1.14-2.31c-73.81-96.19-190.11-158.38-321.07-158.38c-100.01,0-191.47,36.21-262,96.22
			c-27.8,23.66-8.52,64.47,27.98,64.47h342.8c0,0,0.02,0,0.02-0.01c0.02-0.01,0.04-0.03,0.04-0.05
			C2453.58,1258.03,2453.58,1258.02,2453.6,1258.01z M671.22,1098.08c-241.95,0-412.37,169.83-412.37,401.51
			s170.64,401.51,412.37,401.51c131.08,0,237.38-51.08,284.16-104.66c46.77-53.57,7.92-134.71-62.44-134.71
			c-25.46,0-48.74,12.75-68.71,28.54c-37.72,29.82-88.77,44-153.01,44c-105.57,0-189.06-55.49-216.37-160.93
			c-1.18-4.54,2.2-8.91,6.89-8.91h396.39c97.25,0,171.06-54.59,188.24-136.23C1071.69,1307.87,909.66,1098.08,671.22,1098.08z
			 M880.4,1381.49c8.92,17.35-5.15,36.19-24.66,36.19H466.98c-4.89,0-8.41-4.7-6.85-9.34c31.69-94.32,110.46-143.55,211.1-143.55
			C759.28,1264.79,840.4,1303.66,880.4,1381.49z M1178.16,1101.29c-60.19,0-101.46,60.64-79.38,116.64l227.66,577.43
			c25.51,64.7,87.99,107.23,157.54,107.23h27.17c69.55,0,132.02-42.53,157.54-107.23l228.8-580.3
			c21.54-54.62-18.72-113.77-77.43-113.77c-34.05,0-64.67,20.74-77.3,52.37l-219.57,549.88c-4.17,10.45-14.29,17.3-25.54,17.3
			c-11.32,0-21.49-6.94-25.61-17.48l-214.4-547.84C1244.82,1122.81,1213.29,1101.29,1178.16,1101.29z M2565.65,1366.47
			c0-0.03-0.02-0.05-0.06-0.05h-71.07c-8.28,0-16.21-3.57-21.7-9.7l-28.86-32.54c-4.25-4.79-10.51-7.58-17.01-7.58
			c-6.5,0-12.64,2.78-17.01,7.58l-24.73,27.86c-8.05,9.14-19.68,14.38-31.98,14.38h-358.16c-18.77,0-35.74,11.8-40.56,29.94
			c-1.91,7.18-3.62,14.44-5.14,21.77c-5.24,25.35,15.32,47.57,41.21,47.57h319.69c6.48,0,12.64-2.67,17.1-7.24l34.23-35.55
			c4.27-4.46,10.18-6.91,16.35-6.91h1.45c6.48,0,12.62,2.79,16.99,7.58l28.86,32.54c5.49,6.13,13.44,9.69,21.7,9.69h74.39h34.67
			h143.08c25.87,0,46.45-22.22,41.21-47.57c-1.53-7.33-3.24-14.59-5.14-21.77c-4.83-18.14-21.8-29.94-40.57-29.94h-94.29h-34.62
			c0,0-0.02,0-0.02,0s0-0.01-0.02-0.01C2565.67,1366.5,2565.65,1366.49,2565.65,1366.47z M2164.99,1674.58c0,0.01,0,0.01,0,0.02
			c0,0.02-0.01,0.03-0.02,0.04c-0.01,0.01-0.02,0.01-0.04,0.01h-156.34c-16.95,0-32.62-9.62-38.92-25.35
			c-3.08-7.68-5.92-15.48-8.53-23.38c-8.67-26.29,12.32-51.56,40.01-51.56h208.59c12.29,0,23.93-5.24,31.98-14.37l24.73-27.86
			c4.36-4.79,10.51-7.58,17.01-7.58c6.48,0,12.74,2.78,16.99,7.58l28.88,32.54c5.47,6.13,13.42,9.69,21.7,9.69h71.13h34.67h231.41
			c27.67,0,48.68,25.27,40.01,51.56c-2.6,7.92-5.45,15.73-8.53,23.42c-6.3,15.72-21.95,25.31-38.88,25.31h-270.08h-34.67h-74.39
			c-8.28,0-16.21-3.57-21.7-9.7l-28.86-32.54c-4.36-4.79-10.53-7.58-17.01-7.58h-1.45c-6.15,0-12.08,2.45-16.33,6.91l-34.23,35.55
			c-4.46,4.56-10.59,7.23-17.06,7.24c-0.01,0-0.01,0-0.02,0c-0.01,0-0.01,0.01-0.02,0.01
			C2165,1674.56,2164.99,1674.57,2164.99,1674.58z M2263.53,1773.94h34.67h239.58c38.71,0,56.36,44.19,23.7,64.96
			c-62.62,39.85-137.01,62.96-216.85,62.96c-115.97,0-220.4-48.74-294.05-126.71c-0.44-0.46-0.11-1.22,0.53-1.22
			c12.3,0,23.94-5.24,31.99-14.38l24.72-27.86c4.36-4.79,10.51-7.58,17-7.58c6.49,0,12.75,2.79,17,7.58l28.86,32.54
			c5.48,6.13,13.42,9.69,21.7,9.69H2263.53z"/>
	</g>
</g>
<g id="Pontem_1_">
	<g>
		<path class="st13" d="M2419.73,3000H580.27C259.8,3000,0,2740.2,0,2419.73V580.27C0,259.8,259.8,0,580.27,0h1839.46
			C2740.2,0,3000,259.8,3000,580.27v1839.46C3000,2740.2,2740.2,3000,2419.73,3000z"/>
		
			<linearGradient id="SVGID_3_" gradientUnits="userSpaceOnUse" x1="1500" y1="63.3821" x2="1500" y2="3303.1685" gradientTransform="matrix(1 0 0 -1 0 3002)">
			<stop  offset="0.0858" style="stop-color:#8D29C1"/>
			<stop  offset="0.2383" style="stop-color:#942BBB"/>
			<stop  offset="0.4667" style="stop-color:#A92FAC"/>
			<stop  offset="0.7413" style="stop-color:#CA3793"/>
			<stop  offset="1" style="stop-color:#F03F77"/>
		</linearGradient>
		<path class="st14" d="M1500,121.52C740.01,121.52,121.52,739.73,121.52,1500c0,546.34,319.77,1019.68,781.89,1242.59v0.84h1.96
			c180.24,86.47,381.82,135.04,594.63,135.04c759.99,0,1378.48-618.49,1378.48-1378.48C2878.48,740.01,2259.99,121.52,1500,121.52z
			 M1500,234.67c697.66,0,1265.33,567.67,1265.33,1265.33c0,200.45-47.17,389.96-130.27,558.69
			c-182.21-88.44-367.22-154.13-553.91-198.49V804.58c0-36.5-29.2-66.26-64.85-66.26h-231.9h-583.96h-231.9
			c-35.94,0-64.85,29.76-64.85,66.26v1060.39c-181.08,44.64-361.04,108.93-538.19,193.72c-83.38-168.73-130.55-358.24-130.55-558.97
			C234.67,802.34,802.34,234.67,1500,234.67z M438.21,2186.71c149.92-74.4,305.73-131.39,465.2-170.7v599.4
			C714.46,2514.06,554.44,2365.83,438.21,2186.71z M1200.44,2729.12V1316.67c0-163.11,133.92-299,293.94-299
			s290.01,132.23,290.01,295.63c0,1.12-0.28,2.25-0.28,3.37h0.28v491.31c-136.45-15.44-273.45-21.06-410.17-13.76l-112.86,163.4
			c175.47-14.88,346.16-13.47,514.61,5.34c1.4,0.28,3.09,0.28,4.49,0.28c1.12,0,2.25,0.28,3.93,0.56
			c29.2,3.37,136.44,17.12,234.14,41.55l-234.14,79.45v647.69c-91.53,21.06-186.42,32.57-284.12,32.57
			C1396.69,2765.33,1296.46,2752.42,1200.44,2729.12z M2081.15,2623.27v-604.73c159.46,40.15,317.53,98.83,475.87,175.75
			C2437.98,2374.81,2274.03,2523.05,2081.15,2623.27z"/>
	</g>
	<g id="Pontem">
		<path class="st13" d="M0,1547.08l0-94.16C0,650.49,650.49,0,1452.92,0l94.16,0C2349.51,0,3000,650.49,3000,1452.92v94.16
			C3000,2349.51,2349.51,3000,1547.08,3000h-94.16C650.49,3000,0,2349.51,0,1547.08z"/>
		
			<linearGradient id="SVGID_4_" gradientUnits="userSpaceOnUse" x1="1500" y1="199.6949" x2="1500" y2="3165.7314" gradientTransform="matrix(1 0 0 -1 0 3002)">
			<stop  offset="0.0858" style="stop-color:#8D29C1"/>
			<stop  offset="0.2383" style="stop-color:#942BBB"/>
			<stop  offset="0.4667" style="stop-color:#A92FAC"/>
			<stop  offset="0.7413" style="stop-color:#CA3793"/>
			<stop  offset="1" style="stop-color:#F03F77"/>
		</linearGradient>
		<path class="st15" d="M1500,223.25c-695.77,0-1262,565.97-1262,1262c0,500.17,292.75,933.52,715.82,1137.6v0.77h1.8
			c165.01,79.16,349.56,123.63,544.38,123.63c695.77,0,1262-566.23,1262-1262C2762,789.47,2195.77,223.25,1500,223.25z M1500,326.83
			c638.71,0,1158.42,519.71,1158.42,1158.42c0,183.52-43.18,357.01-119.26,511.48c-166.81-80.97-336.19-141.11-507.11-181.72V848.59
			c0-33.41-26.73-60.66-59.37-60.66h-212.3h-534.61h-212.31c-32.9,0-59.37,27.25-59.37,60.66v970.79
			c-165.78,40.87-330.53,99.72-492.72,177.35c-76.34-154.47-119.52-327.97-119.52-511.74C341.58,846.53,861.29,326.83,1500,326.83z
			 M527.93,2113.93c137.25-68.11,279.9-120.29,425.89-156.27v548.75C780.84,2413.62,634.33,2277.92,527.93,2113.93z
			 M1225.75,2610.51v-1293.1c0-149.33,122.6-273.73,269.11-273.73s265.51,121.06,265.51,270.65c0,1.03-0.26,2.06-0.26,3.08h0.26
			v449.8c-124.92-14.13-250.34-19.28-375.52-12.59l-103.33,149.59c160.64-13.62,316.91-12.34,471.13,4.88
			c1.29,0.26,2.83,0.26,4.11,0.26c1.03,0,2.06,0.26,3.6,0.52c26.73,3.08,124.91,15.68,214.36,38.04l-214.36,72.74v592.96
			c-83.79,19.28-170.67,29.81-260.11,29.81C1405.42,2643.66,1313.66,2631.84,1225.75,2610.51z M2032.05,2513.61v-553.63
			c145.99,36.76,290.7,90.47,435.66,160.9C2358.73,2286.14,2208.62,2421.85,2032.05,2513.61z"/>
	</g>
</g>
</svg>
